<?xml version="1.0" encoding="UTF-8" standalone="no"?>
<!-- Creator: CorelDRAW X6 -->

<svg
   xml:space="preserve"
   width="14.2222in"
   height="14.2222in"
   version="1.1"
   style="shape-rendering:geometricPrecision; text-rendering:geometricPrecision; image-rendering:optimizeQuality; fill-rule:evenodd; clip-rule:evenodd"
   viewBox="0 0 14222 14222"
   id="svg2"
   sodipodi:docname="Facebook_CN_Logo_2019.svg"
   inkscape:version="1.3 (0e150ed6c4, 2023-07-21)"
   xmlns:inkscape="http://www.inkscape.org/namespaces/inkscape"
   xmlns:sodipodi="http://sodipodi.sourceforge.net/DTD/sodipodi-0.dtd"
   xmlns="http://www.w3.org/2000/svg"
   xmlns:svg="http://www.w3.org/2000/svg"><sodipodi:namedview
   id="namedview2"
   pagecolor="#ffffff"
   bordercolor="#000000"
   borderopacity="0.25"
   inkscape:showpageshadow="2"
   inkscape:pageopacity="0.0"
   inkscape:pagecheckerboard="0"
   inkscape:deskcolor="#d1d1d1"
   inkscape:document-units="in"
   inkscape:zoom="0.6306162"
   inkscape:cx="681.87274"
   inkscape:cy="682.66562"
   inkscape:window-width="1858"
   inkscape:window-height="1057"
   inkscape:window-x="1072"
   inkscape:window-y="-8"
   inkscape:window-maximized="1"
   inkscape:current-layer="Layer_x0020_1" />&#10; <defs
   id="defs1"><rect
   x="910.22083"
   y="1065.6244"
   width="122.10279"
   height="131.6173"
   id="rect3" /><rect
   x="889.60607"
   y="1040.2524"
   width="166.50381"
   height="152.23205"
   id="rect2" />&#10;  <style
   type="text/css"
   id="style1">&#10;   <![CDATA[
    .fil0 {fill:#1977F3;fill-rule:nonzero}
    .fil1 {fill:#FEFEFE;fill-rule:nonzero}
   ]]>&#10;  </style>&#10; </defs>&#10; <g
   id="Layer_x0020_1"
   inkscape:label="Layer 1">&#10;  <metadata
   id="CorelCorpID_0Corel-Layer" />&#10;  <path
   class="fil0"
   d="M14222 7111c0,-3927 -3184,-7111 -7111,-7111 -3927,0 -7111,3184 -7111,7111 0,3549 2600,6491 6000,7025l0 -4969 -1806 0 0 -2056 1806 0 0 -1567c0,-1782 1062,-2767 2686,-2767 778,0 1592,139 1592,139l0 1750 -897 0c-883,0 -1159,548 -1159,1111l0 1334 1972 0 -315 2056 -1657 0 0 4969c3400,-533 6000,-3475 6000,-7025z"
   id="path1" />&#10;  <path
   class="fil1"
   d="M9879 9167l315 -2056 -1972 0 0 -1334c0,-562 275,-1111 1159,-1111l897 0 0 -1750c0,0 -814,-139 -1592,-139 -1624,0 -2686,984 -2686,2767l0 1567 -1806 0 0 2056 1806 0 0 4969c362,57 733,86 1111,86 378,0 749,-30 1111,-86l0 -4969 1657 0z"
   id="path2" />&#10; <text
   xml:space="preserve"
   transform="scale(10.416519)"
   id="text2"
   style="white-space:pre;shape-inside:url(#rect2);fill:#ffffff;fill-opacity:0;stroke:#ff0000;stroke-width:3" /><text
   xml:space="preserve"
   style="font-style:normal;font-variant:normal;font-weight:normal;font-stretch:normal;font-size:3335.32px;font-family:'Brush Script MT';-inkscape-font-specification:'Brush Script MT, Normal';font-variant-ligatures:normal;font-variant-caps:normal;font-variant-numeric:normal;font-variant-east-asian:normal;fill:#fefefe;fill-opacity:1;stroke:#fefefe;stroke-width:52.1145;stroke-opacity:1"
   x="8829.3066"
   y="12268.528"
   id="text3"><tspan
     sodipodi:role="line"
     id="tspan3"
     style="stroke-width:52.1145;fill:#fefefe;fill-opacity:1"
     x="8829.3066"
     y="12268.528">中</tspan></text></g>&#10;</svg>
